<mxfile host="app.diagrams.net" modified="2022-10-15T09:25:06.601Z" agent="5.0 (Windows NT 10.0; Win64; x64) AppleWebKit/537.36 (KHTML, like Gecko) Chrome/106.0.5249.103 Safari/537.36" etag="dyd8-opXwdapEEebdgov" version="20.4.1" type="github">
  <diagram id="4Gk-r4VhsQIBWkwSeejy" name="Page-1">
    <mxGraphModel dx="868" dy="474" grid="1" gridSize="10" guides="1" tooltips="1" connect="1" arrows="1" fold="1" page="1" pageScale="1" pageWidth="850" pageHeight="1100" math="0" shadow="0">
      <root>
        <mxCell id="0" />
        <mxCell id="1" parent="0" />
        <mxCell id="OJUEyB1cuBqhLDd4dxzD-3" value="Start" style="rounded=1;whiteSpace=wrap;html=1;" vertex="1" parent="1">
          <mxGeometry x="330" y="30" width="120" height="60" as="geometry" />
        </mxCell>
        <mxCell id="OJUEyB1cuBqhLDd4dxzD-4" value="" style="endArrow=classic;html=1;rounded=0;exitX=0.5;exitY=1;exitDx=0;exitDy=0;entryX=0.438;entryY=-0.033;entryDx=0;entryDy=0;entryPerimeter=0;" edge="1" parent="1" source="OJUEyB1cuBqhLDd4dxzD-3" target="OJUEyB1cuBqhLDd4dxzD-5">
          <mxGeometry width="50" height="50" relative="1" as="geometry">
            <mxPoint x="380" y="140" as="sourcePoint" />
            <mxPoint x="390" y="130" as="targetPoint" />
          </mxGeometry>
        </mxCell>
        <mxCell id="OJUEyB1cuBqhLDd4dxzD-5" value="int age=20" style="shape=parallelogram;perimeter=parallelogramPerimeter;whiteSpace=wrap;html=1;fixedSize=1;" vertex="1" parent="1">
          <mxGeometry x="330" y="140" width="130" height="60" as="geometry" />
        </mxCell>
        <mxCell id="OJUEyB1cuBqhLDd4dxzD-6" value="" style="endArrow=classic;html=1;rounded=0;exitX=0.415;exitY=1.017;exitDx=0;exitDy=0;exitPerimeter=0;" edge="1" parent="1" source="OJUEyB1cuBqhLDd4dxzD-5">
          <mxGeometry width="50" height="50" relative="1" as="geometry">
            <mxPoint x="370" y="250" as="sourcePoint" />
            <mxPoint x="384" y="250" as="targetPoint" />
          </mxGeometry>
        </mxCell>
        <mxCell id="OJUEyB1cuBqhLDd4dxzD-7" value="is age&amp;gt;17" style="rhombus;whiteSpace=wrap;html=1;" vertex="1" parent="1">
          <mxGeometry x="345" y="250" width="80" height="80" as="geometry" />
        </mxCell>
        <mxCell id="OJUEyB1cuBqhLDd4dxzD-9" value="" style="endArrow=classic;html=1;rounded=0;" edge="1" parent="1" source="OJUEyB1cuBqhLDd4dxzD-7">
          <mxGeometry width="50" height="50" relative="1" as="geometry">
            <mxPoint x="425" y="340" as="sourcePoint" />
            <mxPoint x="495.71067811865476" y="290" as="targetPoint" />
          </mxGeometry>
        </mxCell>
        <mxCell id="OJUEyB1cuBqhLDd4dxzD-10" value="You cant vote" style="shape=parallelogram;perimeter=parallelogramPerimeter;whiteSpace=wrap;html=1;fixedSize=1;" vertex="1" parent="1">
          <mxGeometry x="500" y="260" width="120" height="60" as="geometry" />
        </mxCell>
        <mxCell id="OJUEyB1cuBqhLDd4dxzD-12" value="" style="endArrow=classic;html=1;rounded=0;exitX=0;exitY=0.5;exitDx=0;exitDy=0;" edge="1" parent="1" source="OJUEyB1cuBqhLDd4dxzD-7">
          <mxGeometry width="50" height="50" relative="1" as="geometry">
            <mxPoint x="290" y="320" as="sourcePoint" />
            <mxPoint x="270" y="290" as="targetPoint" />
          </mxGeometry>
        </mxCell>
        <mxCell id="OJUEyB1cuBqhLDd4dxzD-13" value="You cant vote" style="shape=parallelogram;perimeter=parallelogramPerimeter;whiteSpace=wrap;html=1;fixedSize=1;" vertex="1" parent="1">
          <mxGeometry x="150" y="260" width="120" height="60" as="geometry" />
        </mxCell>
        <mxCell id="OJUEyB1cuBqhLDd4dxzD-14" value="" style="endArrow=classic;html=1;rounded=0;entryX=0;entryY=0.5;entryDx=0;entryDy=0;" edge="1" parent="1" target="OJUEyB1cuBqhLDd4dxzD-16">
          <mxGeometry width="50" height="50" relative="1" as="geometry">
            <mxPoint x="200" y="320" as="sourcePoint" />
            <mxPoint x="340" y="360" as="targetPoint" />
            <Array as="points">
              <mxPoint x="180" y="360" />
            </Array>
          </mxGeometry>
        </mxCell>
        <mxCell id="OJUEyB1cuBqhLDd4dxzD-15" value="" style="endArrow=classic;html=1;rounded=0;exitX=0.567;exitY=1.1;exitDx=0;exitDy=0;exitPerimeter=0;entryX=1;entryY=0.5;entryDx=0;entryDy=0;" edge="1" parent="1" source="OJUEyB1cuBqhLDd4dxzD-10" target="OJUEyB1cuBqhLDd4dxzD-16">
          <mxGeometry width="50" height="50" relative="1" as="geometry">
            <mxPoint x="470" y="400" as="sourcePoint" />
            <mxPoint x="570" y="350" as="targetPoint" />
            <Array as="points">
              <mxPoint x="580" y="360" />
            </Array>
          </mxGeometry>
        </mxCell>
        <mxCell id="OJUEyB1cuBqhLDd4dxzD-16" value="end" style="rounded=1;whiteSpace=wrap;html=1;sketch=0;glass=0;" vertex="1" parent="1">
          <mxGeometry x="325" y="340" width="120" height="60" as="geometry" />
        </mxCell>
      </root>
    </mxGraphModel>
  </diagram>
</mxfile>
